<svg width="295" height="291" viewBox="0 0 295 291" fill="none" xmlns="http://www.w3.org/2000/svg">
<g clip-path="url(#clip0_2021_16)">
<path d="M119.889 2.18246C104.631 5.09247 96.0567 8.00247 82.8325 14.55C47.5197 32.301 22.0887 63.8745 11.335 103.305C6.68472 120.619 6.68472 149.428 11.4803 167.325C13.2241 174.018 15.4039 180.856 16.2759 182.311C17.4384 184.639 16.7118 185.949 11.4803 190.314C-2.32513 202.1 -3.63301 220.578 8.28325 233.236L12.2069 237.165L8.28325 241.239C-7.1207 257.244 0.726596 283.434 22.6699 289.545C38.0739 293.91 53.6231 286.635 61.1798 271.794L63.9409 266.265H147.5C228.153 266.265 230.914 266.411 231.786 269.03C233.966 276.014 241.667 284.016 249.515 287.654C276.835 300.167 304.882 272.085 290.059 246.768C288.025 243.131 285.118 239.493 283.665 238.765C281.34 237.456 281.485 237.165 284.537 234.255C292.53 226.689 295.727 217.086 293.401 206.61C291.076 195.988 284.101 189.15 270.732 183.912C270.441 183.912 272.039 177.364 274.219 169.362C281.485 141.862 279.16 109.125 267.97 82.644C259.251 61.692 239.488 37.3935 221.177 24.8805C191.387 4.65598 152.877 -3.92853 119.889 2.18246ZM170.025 8.00247C235.273 21.0975 281.485 86.718 271.894 152.775C269.714 167.179 264.919 183.33 262.739 183.33C261.867 183.33 261.576 182.02 262.158 180.129C268.842 157.431 269.278 154.521 269.278 135.315C269.278 112.035 266.517 99.813 256.781 79.2975C230.623 25.1715 169.298 -2.76453 110.153 12.3675C89.2266 17.751 64.0862 32.883 49.9901 48.4515C34.8768 65.184 23.3965 87.1545 18.7463 108.397C15.5493 122.656 16.4212 154.23 20.1995 167.325C25.2857 184.785 25.2857 185.221 23.1059 184.494C20.1995 183.475 14.8227 164.851 12.7882 148.992C8.42857 113.053 21.6527 73.914 47.665 46.269C79.1995 12.804 124.103 -1.16403 170.025 8.00247ZM159.852 19.0605C159.852 19.788 157.963 20.37 155.493 20.37C151.424 20.37 149.97 19.0605 151.86 17.169C153.022 16.005 159.852 17.6055 159.852 19.0605ZM147.791 23.7165C147.5 24.5895 145.756 26.19 143.722 27.2085C141.251 28.518 140.089 30.555 139.507 34.4835C138.926 38.8485 138.054 40.158 135.584 40.449C132.387 40.8855 132.241 40.449 132.241 32.1555C132.241 22.698 132.096 22.8435 142.85 22.2615C146.773 21.9705 148.227 22.407 147.791 23.7165ZM157.818 27.7905C157.236 30.1185 156.51 33.9015 156.074 36.375C155.493 39.867 154.475 40.74 151.569 40.74C147.936 40.74 147.936 40.5945 148.953 32.301C150.261 22.116 150.261 22.116 154.766 22.989C158.108 23.571 158.399 24.153 157.818 27.7905ZM175.837 25.7535C185.138 27.2085 186.01 29.682 180.924 41.613C179.325 45.396 178.308 46.1235 175.837 45.5415C172.495 44.6685 172.495 43.5045 175.256 33.6105C177 27.7905 171.042 30.4095 169.153 36.375C167.554 41.322 163.631 43.65 161.16 41.1765C160.579 40.5945 160.579 37.1025 161.451 33.465C163.631 23.28 163.921 22.8435 167.554 24.0075C169.298 24.5895 173.076 25.317 175.837 25.7535ZM125.557 27.063C129.48 30.9915 128.172 33.0285 120.616 34.92C116.692 35.9385 113.35 37.248 113.35 37.9755C113.35 39.7215 118.727 39.576 119.889 37.83C120.325 36.957 122.505 36.375 124.539 36.375C128.172 36.375 128.318 36.375 125.702 39.285C122.214 43.2135 112.768 45.687 109.135 43.65C102.596 40.3035 103.613 30.7005 110.734 27.2085C116.837 24.153 122.65 24.153 125.557 27.063ZM97.8005 31.137C100.562 30.1185 102.16 34.4835 99.5443 35.9385C96.4926 37.6845 98.3818 43.65 102.015 43.65C105.938 43.65 104.776 48.1605 100.271 50.4885C95.9113 52.671 94.7488 51.9435 92.133 45.687C90.9704 42.9225 89.0813 40.74 87.7734 40.74C84.5764 40.74 86.3202 33.9015 90.5345 29.391C93.5862 26.19 93.5862 26.0445 94.7488 28.9545C95.3301 30.7005 96.6379 31.5735 97.8005 31.137ZM202.14 35.3565C204.901 37.248 207.227 40.158 207.517 42.0495C207.953 44.814 204.03 54.417 200.978 58.0545C200.687 58.491 199.089 57.327 197.2 55.7265C195.456 54.126 192.259 52.38 190.079 51.798C183.394 50.1975 181.36 42.3405 187.027 40.158C188.335 39.576 191.532 40.0125 194.293 40.8855C197.054 41.7585 199.67 42.195 200.106 41.7585C201.559 40.158 198.943 37.83 195.746 37.83C191.532 37.83 188.335 35.6475 189.498 33.6105C191.096 30.9915 196.909 31.719 202.14 35.3565ZM84.867 44.523C88.2094 47.724 87.7734 48.597 82.1059 52.962C77.0197 56.8905 75.5665 59.655 78.6182 59.655C79.4902 59.655 81.5246 58.0545 83.1232 56.0175C86.3202 51.9435 88.6453 51.3615 88.6453 54.5625C88.6453 57.4725 78.9089 66.93 75.7118 66.93C69.6084 66.93 65.5394 57.618 68.8818 51.0705C73.0961 43.068 80.3621 40.0125 84.867 44.523ZM221.468 50.052C227.717 55.4355 227.571 58.9275 220.887 57.4725C217.544 56.745 216.382 57.327 213.766 60.9645C211.005 64.893 210.133 65.184 207.663 63.5835C206.209 62.7105 204.901 61.401 204.901 60.819C204.901 59.2185 213.911 45.105 214.929 45.105C215.365 45.2505 218.416 47.433 221.468 50.052ZM65.6847 80.4615C63.069 83.0805 62.197 83.0805 51.734 81.3345C45.6305 80.316 40.6897 79.152 40.6897 78.7155C40.6897 78.1335 42.1429 76.0965 44.032 73.914L47.2291 69.84L53.6231 72.75C57.1108 74.3505 60.3079 75.5145 60.5985 75.2235C60.8892 74.9325 59.436 70.8585 57.4015 66.348C53.7685 58.0545 53.7685 56.745 57.8374 51.9435C59.8719 49.6155 60.4532 50.4885 64.2315 63.438C68.4458 77.406 68.4458 77.697 65.6847 80.4615ZM160.579 53.1075C197.781 60.9645 226.7 96.1755 226.7 133.86C226.7 159.904 211.732 187.695 190.224 202.1L181.36 208.065H143.286H105.357L98.8177 203.7C74.6946 187.84 61.0345 162.232 61.0345 133.714C61.0345 110.725 68.5911 92.538 85.0123 76.0965C105.357 55.581 132.823 47.2875 160.579 53.1075ZM232.803 69.4035C231.931 72.3135 231.35 75.078 231.64 75.369C231.931 75.66 234.256 74.787 236.727 73.623C240.796 71.4405 241.232 71.4405 243.266 74.496C244.574 76.242 245.591 78.1335 245.591 78.57C245.591 79.0065 240.796 80.607 234.983 82.062C224.81 84.681 224.084 84.681 220.451 82.2075C218.271 80.898 216.527 78.7155 216.527 77.697C216.527 75.2235 218.271 75.078 220.596 77.406C223.067 79.8795 224.665 77.2605 225.973 68.676C227.571 58.2 228.153 57.4725 231.495 60.9645C234.111 63.5835 234.256 64.4565 232.803 69.4035ZM45.9212 125.13C48.2463 125.13 48.2463 125.275 46.0665 127.749C44.6133 129.204 43.5961 132.259 43.5961 134.442C43.5961 137.788 43.1601 138.37 41.1256 137.497C39.6724 136.915 37.9286 136.479 37.0566 136.479C36.33 136.479 34.4409 136.915 33.133 137.497C30.9532 138.37 30.5172 137.788 30.5172 134.005C30.5172 131.241 29.6453 129.058 28.3374 128.622C25.1404 127.312 25.7217 125.566 29.7906 124.548C31.6798 124.111 34.0049 122.365 34.8768 120.619C36.4754 117.709 36.6207 117.709 39.9631 121.347C41.8522 123.384 44.6133 125.13 45.9212 125.13ZM250.677 120.619C251.113 122.074 253.148 123.82 255.037 124.257C259.251 125.275 259.687 126.876 256.49 129.495C255.037 130.659 254.601 132.55 255.328 135.024C256.054 138.37 255.909 138.516 252.712 137.643C248.062 136.188 246.899 136.188 243.557 137.497C241.086 138.516 240.941 138.225 241.667 135.024C242.394 132.55 241.958 130.659 240.505 129.495C237.308 126.876 237.744 125.275 241.958 124.257C243.847 123.82 245.882 122.074 246.318 120.619C246.899 119.164 247.771 117.855 248.498 117.855C249.224 117.855 250.096 119.164 250.677 120.619ZM40.2537 188.423C48.2463 190.75 55.9483 198.025 59.436 206.319L61.3251 210.975H147.5H233.53L236.145 205.155C242.249 191.769 258.525 183.621 271.167 187.695C279.305 190.314 284.537 194.388 287.734 200.79C293.401 211.993 290.495 225.67 280.759 233.673L276.98 236.874L281.485 240.657C294.273 251.424 293.692 270.485 280.177 281.252C266.081 292.601 241.667 284.889 235.273 266.993L233.384 261.9H147.5H61.7611L57.5468 269.903C53.1872 278.487 48.9729 282.27 40.835 284.889C30.3719 288.527 19.9089 286.49 12.6429 279.651C6.5394 273.977 4.3596 268.739 4.3596 260.445C4.3596 251.715 5.8128 248.514 12.6429 241.239L17.7291 236.001L14.2414 233.673C1.4532 225.234 1.4532 201.372 14.0961 192.351C22.9606 186.24 29.5 185.221 40.2537 188.423Z" fill="black"/>
<path d="M114.076 30.7005C113.495 31.5735 113.35 32.4465 113.786 32.883C114.803 33.9015 119.163 31.8645 119.163 30.4095C119.163 28.518 115.239 28.809 114.076 30.7005Z" fill="black"/>
<path d="M192.259 46.851C192.549 47.8695 193.712 48.7425 194.729 48.7425C195.746 48.7425 196.909 47.8695 197.345 46.851C197.636 45.8325 196.618 45.105 194.729 45.105C192.84 45.105 191.823 45.8325 192.259 46.851Z" fill="black"/>
<path d="M74.1133 50.7794C73.3867 52.3799 73.2414 53.9804 73.968 54.4169C75.5665 55.4354 80.2167 50.3429 78.9089 49.0334C77.3103 47.2874 75.7118 47.8694 74.1133 50.7794Z" fill="black"/>
<path d="M140.961 74.6415C135.584 77.2605 131.515 90.6465 133.549 98.649C135.729 106.506 141.978 112.617 150.406 114.945C156.219 116.545 157.818 116.545 162.177 114.363C168.426 111.453 172.059 103.887 170.606 96.612C169.298 89.4825 162.613 80.1705 156.074 76.0965C149.68 72.3135 146.192 72.0225 140.961 74.6415Z" fill="black"/>
<path d="M100.852 82.2075C95.9113 85.554 92.8596 93.702 92.8596 103.16C92.7143 116.691 98.5271 125.13 107.682 125.13C114.803 125.13 121.052 119.892 124.394 111.308C128.318 100.977 123.958 88.755 114.222 82.7895C108.845 79.443 104.921 79.2975 100.852 82.2075Z" fill="black"/>
<path d="M181.36 85.6995C177.145 89.4825 176.564 90.9375 176.564 97.0485C176.564 105.633 181.505 113.199 189.498 116.982C194.148 119.164 195.02 119.164 198.943 117.127C207.663 112.762 207.227 95.157 198.217 85.6995C192.985 80.1705 187.463 80.1705 181.36 85.6995Z" fill="black"/>
<path d="M69.463 117.855C65.5394 121.929 65.1034 123.093 65.6847 129.204C66.7019 139.098 70.7709 146.809 76.5837 149.574C86.4655 154.23 94.6034 146.955 95.6207 132.405C96.202 124.111 96.0566 123.529 91.1157 118.582C86.9015 114.363 85.0123 113.49 79.9261 113.49C75.1305 113.49 72.9507 114.363 69.463 117.855Z" fill="black"/>
<path d="M163.631 117.127C156.8 119.455 149.099 126.73 146.628 132.987C145.611 135.46 144.739 137.643 144.594 137.934C144.448 138.079 140.815 135.897 136.456 132.987C129.044 128.04 128.027 127.749 119.163 128.331C103.177 129.204 94.4581 138.516 94.4581 154.812C94.4581 164.415 96.202 169.653 101.433 175.036C106.665 180.565 110.443 182.457 128.463 188.277C142.559 192.933 154.039 198.607 156.219 202.245C157.527 204.427 161.305 203.991 161.305 201.808C161.305 198.316 172.931 183.039 184.557 170.962C197.926 156.994 199.525 154.375 199.525 144.772C199.525 131.823 190.805 119.746 179.034 116.4C172.204 114.508 170.606 114.654 163.631 117.127ZM136.892 144.772C141.251 152.92 144.448 154.666 153.894 153.502C163.049 152.338 167.118 154.812 170.17 163.396C172.64 170.235 172.204 171.835 168.862 168.489C167.554 167.179 167.118 167.179 167.118 168.343C167.118 169.362 167.845 170.526 168.571 170.962C169.443 171.399 170.025 174.163 170.025 176.928C170.025 179.692 169.443 181.875 168.571 181.875C167.845 181.875 167.118 180.274 167.118 178.237C167.118 176.2 166.392 174.6 165.665 174.6C164.793 174.6 164.212 175.618 164.502 176.928C164.793 178.383 164.067 179.692 163.195 179.983C162.032 180.42 161.305 179.547 161.305 177.946C161.305 176.346 159.562 173.436 157.382 171.399C153.894 168.052 152.586 167.616 148.227 168.634C143.576 169.507 143.14 170.235 142.414 175.327C141.978 178.383 140.815 181.147 139.653 181.584C138.345 182.02 138.054 181.293 138.781 179.11C139.362 177.364 139.071 176.055 138.2 176.055C137.328 176.055 136.601 177.073 136.601 178.237C136.601 179.401 136.02 180.42 135.148 180.42C134.421 180.42 133.695 177.801 133.695 174.6C133.695 171.544 133.113 167.47 132.387 165.579C131.66 163.687 130.352 159.322 129.335 155.83C128.318 151.756 126.719 149.283 124.83 148.846C120.906 147.828 121.342 143.317 125.702 141.426C127.736 140.553 129.335 138.952 129.335 138.079C129.335 134.587 133.113 138.079 136.892 144.772Z" fill="black"/>
</g>
<defs>
<clipPath id="clip0_2021_16">
<rect width="295" height="291" fill="white"/>
</clipPath>
</defs>
</svg>
